<svg width="192" height="86" viewBox="0 0 192 86" fill="none" xmlns="http://www.w3.org/2000/svg">
<path d="M24.7382 8.53144C25.0909 8.69851 25.5664 8.48355 25.4403 9.09056C25.9728 8.94354 26.1346 8.99812 26.5979 9.23647C26.6816 9.27991 26.6972 9.46146 26.7363 9.48039C26.8713 9.54611 27.4328 9.30107 27.5411 9.78891L27.1214 10.2088L28.1048 9.84126L35.3771 12.9588L28.4508 35.6623C28.0847 36.2437 22.8975 36.3752 21.9353 36.5033L32.524 59.4374C32.927 60.9599 31.2169 60.6637 30.2781 60.7728C29.5626 60.8564 29.3684 60.8151 28.7455 60.8385C28.6685 60.8419 28.7031 61.0702 28.462 61.1315C27.127 61.47 25.553 61.6204 24.237 61.7997C23.0995 61.9545 21.6283 62.4691 20.6751 61.6761C20.5746 61.5926 21.193 61.4533 20.953 61.1181L20.4641 61.5346L20.1125 61.0457L20.3927 60.9766L20.3949 60.6982L19.9607 60.6147C17.938 56.0537 16.4211 50.9291 14.2667 46.4617C14.1863 46.2957 14.1919 46.0485 13.9486 46.0117L13.7264 52.8604C13.5501 53.2269 13.2018 53.5476 12.7642 53.5621C12.5544 53.5053 12.3557 52.6677 12.4673 52.4472C12.6705 52.0418 13.2509 52.3024 13.5233 51.956L12.8268 51.4671L12.2675 52.1654C12.3278 51.8547 10.889 51.0293 10.7952 51.0472C10.3576 51.1285 10.8912 51.8123 11.2819 51.4671C11.3645 51.8302 11.1825 51.6753 10.9928 51.8335L11.1267 52.5074L10.1623 53.2168L12.0331 53.4162L12.5667 54.9421L13.6651 54.9644L13.53 56.5538L13.1047 56.644C12.9495 57.1296 13.4172 57.1006 13.4943 57.231C13.6874 57.5562 13.3704 60.794 13.3369 61.3854C13.2866 62.2675 13.7633 63.4548 12.6002 63.623C8.892 63.9761 4.74627 65.5265 1.10396 65.8629C0.60612 65.9085 0.293572 65.9041 0 65.4519L1.47233 50.0715C1.77148 50.1918 2.03268 50.5515 2.31174 50.1394C2.35527 49.6315 1.46228 49.8766 1.46898 49.7195L2.52494 40.4171C3.46705 40.1064 2.10077 39.2777 3.01051 39.1574L2.73145 37.9768L5.96744 7.21048C6.60816 6.41078 6.09915 6.40187 6.10027 5.82492C6.10139 5.24798 6.2945 3.91699 6.39273 3.30329C6.453 2.92572 6.72202 1.36863 7.02675 1.26951C7.30805 1.17706 8.60847 1.76849 8.93665 1.95337C9.57179 2.31202 9.27263 2.13715 9.95019 2.36548C12.8022 3.32668 15.6118 4.8949 18.485 5.85945L18.7161 6.7115L19.1313 6.71373V6.29383C21.0457 6.85852 22.9667 7.69164 24.7382 8.53255C24.0986 8.43231 24.688 9.13289 24.8777 8.95134L24.7382 8.53255V8.53144ZM16.7481 6.85184L16.2581 5.87616L15.9098 6.22366C16.478 6.39407 16.1353 6.9944 16.7481 6.85184ZM15.7669 6.85407C15.6464 6.82399 14.4978 6.93537 14.788 7.27063L15.5582 7.68941C15.8451 7.49338 15.7725 7.15034 15.7669 6.85407ZM9.87987 7.27285H9.32063V7.83086H9.52825C9.69346 7.65934 9.93233 7.54128 9.87987 7.27285ZM13.8046 7.69164C14.0714 7.44326 13.2431 7.06569 13.2476 7.48225C13.2487 7.62593 13.7119 7.7774 13.8046 7.69164ZM10.7204 7.69275H10.3018C10.304 8.2051 10.7182 8.2051 10.7204 7.69275ZM20.6728 8.11265C20.5411 7.98568 20.0221 8.41338 20.1136 8.67066C20.2453 8.79764 20.7644 8.36994 20.6728 8.11265ZM16.1866 8.25188C15.6732 8.2541 15.6732 8.66732 16.1866 8.66955V8.25188ZM19.4115 8.25076H18.9929C18.869 8.87226 18.8522 9.21197 19.1346 9.78891C19.4762 9.94596 19.3847 9.50267 19.484 9.5049C19.7285 9.51046 19.9919 10.0651 20.3212 9.36567C20.4083 9.18078 20.4127 9.00926 20.3938 8.811L19.6827 8.87003L19.4148 9.36901L19.4126 8.24965L19.4115 8.25076ZM14.9253 9.09056C14.942 8.79875 14.9789 8.56708 14.7154 8.39444C14.3928 8.63725 14.3806 8.72301 14.5078 9.09056H14.9253ZM24.1689 8.8188L22.5872 8.69405C21.8393 9.41134 22.8328 9.18746 23.2268 9.3757C23.4958 9.50378 23.4478 10.0718 24.1555 9.62853L24.1678 8.8188H24.1689ZM10.7204 9.51158C10.4983 9.28993 10.0786 9.70761 10.3018 9.92925C10.5251 10.1509 10.9437 9.73322 10.7204 9.51158ZM14.3661 10.7679V10.5619C14.0423 10.2578 13.8102 10.1308 13.8816 9.65303L13.5266 9.51046C13.4976 10.2957 12.4986 10.1843 12.9629 11.189C12.7743 11.1823 12.6727 10.7557 12.4718 11.0475C11.8099 12.0143 12.3568 12.9131 12.8256 11.4685L13.2453 11.61L13.1036 12.0276H13.5233C13.2286 11.317 13.5199 11.5832 13.7175 11.3204C13.9151 11.0575 13.8024 10.6877 14.3649 10.7691L14.3661 10.7679ZM23.4757 10.0707L23.1252 10.2088L23.0571 10.7679C23.3105 10.7969 23.4869 10.7858 23.6074 10.5452L23.4757 10.0707ZM24.5886 11.7414C24.9224 11.15 24.5194 10.7212 23.9702 10.4906C23.4322 10.8949 24.3899 11.1644 24.179 11.7492L24.5886 11.7414ZM15.2066 11.0497L14.6473 11.1188L14.999 11.4674H15.2066V11.0497ZM25.5184 11.7559C25.0853 11.8884 25.3599 12.472 25.9214 12.2994C26.3534 12.1657 26.081 11.5832 25.5184 11.7559ZM12.4026 12.8674C12.1425 12.9766 11.2875 12.9499 11.1624 13.0278C11.0899 13.0724 11.0765 13.4221 10.9314 13.5647C10.6601 13.832 10.131 13.6538 10.2996 14.4034C10.9202 14.3042 11.0374 14.6907 11.3533 15.1028L11.7719 14.6863L12.0521 14.9614C12.493 14.6751 11.9304 14.5949 11.8612 14.3065C11.8143 14.1104 12.0342 13.7529 11.9818 13.7061C11.9014 13.6326 11.3901 13.8598 11.4225 13.5669C11.8299 13.558 12.397 13.3508 12.4026 12.8663V12.8674ZM13.8771 13.0078C13.6829 13.0523 13.3994 13.4778 13.7365 13.5658C14.3393 13.7228 14.3158 12.9075 13.8771 13.0078ZM14.644 14.8255C14.7791 14.2296 15.2981 13.6059 14.3661 13.4277C14.289 13.5235 14.2567 15.2532 14.644 14.8255ZM7.46544 14.7152C7.4286 14.6462 6.89392 14.3688 6.73876 14.4078L6.3771 15.2443C6.79792 15.1039 7.07587 15.0939 7.49669 15.2443C7.48441 15.0727 7.54804 14.8689 7.46544 14.7152ZM13.386 15.2443C13.6639 15.2877 13.9352 15.2242 13.9452 14.8979L13.7186 14.703L13.2453 14.6874L13.386 15.2454V15.2443ZM12.6828 15.3846C12.253 15.3 12.33 15.9649 11.9963 16.1542C12.0733 16.318 12.7095 16.7679 12.8234 16.6421L12.6828 15.3835V15.3846ZM10.4402 15.525L10.0897 15.6631L10.0216 16.2222C10.457 16.211 10.6155 15.9259 10.4402 15.525ZM25.2985 20.0024L14.9487 15.5461L14.7288 15.9092L14.1729 15.7945L14.0167 16.0874L13.3179 15.6653C12.3814 17.2959 14.1863 16.4316 14.5 16.7913L12.6839 26.2953C16.084 26.5805 19.5052 27.1084 22.9254 26.9324L25.2985 20.0035V20.0024ZM20.252 15.6653L19.6135 15.9449L19.7017 16.6354L20.1114 16.6432L20.252 15.6642V15.6653ZM6.65504 15.8045L6.09581 15.946V16.083H6.65504V15.8045ZM28.3816 16.3648C27.8146 16.4149 27.5857 16.9996 27.6817 17.4819L28.1718 17.3427L28.3816 16.3648ZM6.79569 16.9239C6.22083 16.9283 5.96409 17.434 5.96967 17.9508C6.27775 18.0978 6.88276 18.8084 7.13614 18.7327C7.44758 18.6402 7.54581 17.9152 7.49669 17.6233L6.51663 17.9018L6.79569 16.9239ZM11.984 18.6001L12.8212 18.3919C12.5198 17.6322 12.0097 17.8606 11.984 18.6001ZM8.75916 18.4598C8.68437 18.1813 8.46113 18.1457 8.19881 18.1825V18.4609H8.75916V18.4598ZM5.81563 19.02C5.896 19.1002 6.2331 18.9031 6.2331 18.8106C6.2331 18.423 5.60466 18.8084 5.81563 19.02ZM7.70766 18.7438L7.49781 19.0891L7.70766 19.2985L7.91752 18.9532L7.70766 18.7438ZM10.861 19.0211H10.582V19.4388H10.861V19.0211ZM11.8422 19.441C11.2908 19.441 11.2841 19.9957 11.8422 19.9991V19.441ZM8.05705 20.5582C8.05481 20.0458 7.64069 20.0458 7.63845 20.5582H8.05705ZM6.65616 21.6787C6.40054 21.633 6.19292 21.8324 6.23757 22.0963H6.65616V21.6787ZM4.83557 23.0765L5.25081 22.8582L4.90366 22.2411L4.83445 23.0765H4.83557ZM8.33834 23.0776L7.35828 22.9372C7.34377 23.5264 8.29927 23.7993 8.33834 23.0776ZM5.53434 23.0776C5.27872 23.0319 5.07109 23.2313 5.11574 23.4953H5.53434V23.0776ZM6.93634 23.2179H6.37598V23.6356H6.93634V23.2179ZM5.11351 24.0566H4.69492V24.3351H5.11351V24.0566ZM7.41186 24.5634C7.29354 24.3952 7.346 24.1012 7.07922 24.0555L7.21875 25.1749L7.77575 24.9655C7.73333 24.7483 7.4766 24.6547 7.41297 24.5634H7.41186ZM25.7205 24.8964C25.3588 25.1158 24.6656 24.2649 24.4591 24.4765C24.0372 24.9064 25.2651 25.1626 25.5117 25.1749C25.7919 25.1893 25.7283 25.1492 25.7205 24.8953V24.8964ZM12.5432 24.7561L11.9851 25.1069V25.3141L12.4774 25.1782L12.5432 24.7561ZM9.03822 25.0356C8.95785 24.9554 8.62075 25.1526 8.62075 25.245C8.62075 25.6326 9.24919 25.2473 9.03822 25.0356ZM9.87987 25.8732C10.0239 25.7284 9.60193 25.313 9.46128 25.4555C9.32063 25.5981 9.73922 26.0158 9.87987 25.8732ZM9.7102 26.0458C9.55839 25.9623 9.35077 26.028 9.17999 26.0147L9.46016 27.134C9.77941 27.1819 9.99708 27.0338 10.1522 26.7654C10.1623 26.7019 9.74704 26.067 9.7102 26.047V26.0458ZM11.8422 26.2942C11.7027 26.1528 10.6065 27.0561 10.7226 27.4114C11.4136 27.5172 11.5978 26.7965 11.8422 26.2942ZM28.664 26.713C28.7578 26.7999 29.2199 26.6473 29.221 26.5036C29.2255 26.0871 28.3972 26.4646 28.664 26.713ZM23.8965 26.8545C23.4467 26.4591 23.2636 27.6052 23.7581 27.2042C23.8642 27.1173 23.968 26.9168 23.8965 26.8545ZM9.59969 27.6931C9.35077 27.4269 8.97236 28.2534 9.38984 28.2489C9.53384 28.2478 9.68565 27.7856 9.59969 27.6931ZM28.2421 28.2523C27.7286 28.2545 27.7286 28.6677 28.2421 28.6699V28.2523ZM15.8696 29.8918C16.0404 29.6757 16.1554 28.8515 15.7 28.9517L15.3483 30.0689C15.4075 30.1279 15.8015 29.9786 15.8708 29.8907L15.8696 29.8918ZM9.46016 29.0921C9.27152 29.2636 10.2058 30.0143 10.438 29.581L9.46016 29.0921ZM16.7481 30.0689C17.0149 29.8205 16.1866 29.4429 16.1911 29.8595C16.1922 30.0032 16.6555 30.1546 16.7481 30.0689ZM8.61963 33.1463C8.80828 33.3356 9.42221 32.5448 9.3184 32.3076C9.1465 32.3666 8.46894 32.9948 8.61963 33.1463ZM8.61852 33.8457L8.19992 33.1474C8.31043 33.5773 8.03137 33.4659 7.91975 33.7054L8.61852 33.8469V33.8457ZM5.25527 34.9651C6.09581 35.0141 5.79554 34.3815 5.11463 34.4071L5.25527 34.9651ZM7.9164 36.7828L8.05705 35.8049C7.70878 35.9219 7.79138 36.5578 7.77575 36.8452L8.33722 36.9209L7.9164 36.7817V36.7828ZM5.25416 38.4613C4.95501 38.1873 5.65935 36.794 5.04654 36.9243C4.51521 37.2406 4.85678 37.724 4.70943 38.2319L5.25416 38.4613ZM3.9649 37.0969C3.85885 37.0312 3.75616 37.0702 3.64342 37.0624L3.56975 37.4132L4.06424 37.7596C4.40693 37.6427 4.01066 37.1247 3.96601 37.0969H3.9649ZM10.0205 37.4834C9.13422 37.4867 8.05705 37.5346 7.91863 38.6005L9.9368 37.9144L10.0205 37.4834ZM3.15227 39.8591L3.7863 39.584C3.99727 38.3689 2.95358 39.6664 3.15227 39.8591ZM5.53322 40.5597C5.64708 40.4138 5.29992 40.0429 5.11574 40.0006L5.13249 40.4049L5.53322 40.5608V40.5597ZM3.2918 43.7763C3.4358 43.6315 3.01386 43.2161 2.87321 43.3587C2.73256 43.5012 3.15116 43.9189 3.2918 43.7763ZM8.47787 45.4537C8.70447 45.2454 7.57483 44.5148 7.49781 44.967C7.43641 45.3345 8.2256 45.5172 8.47787 45.4537ZM5.81451 46.4327V45.8747H5.67721L5.53545 46.4327H5.81451ZM3.5731 46.435L2.7281 46.5007C2.41555 46.7112 2.62875 47.1946 3.01162 47.1344V46.7134L3.57198 46.8537V46.435H3.5731ZM20.9329 49.7719L20.8838 49.372L20.1136 50.0704L20.9329 49.7719ZM12.6828 50.634L12.2642 50.4903L12.4037 50.9079L11.9829 51.1875L12.5555 51.1029L12.6828 50.634ZM5.81563 51.4682C5.66605 51.2855 5.93395 50.5482 5.46624 50.6306C5.06328 50.7019 5.69284 51.251 5.39369 51.4682H5.81563ZM2.5908 51.4682C2.60978 51.4526 2.73703 51.0516 2.60308 50.9792L2.24365 50.7698C1.7179 51.0293 2.42336 51.6063 2.5908 51.4671V51.4682ZM17.4502 51.6085C18.0017 51.6085 18.0084 51.0539 17.4502 51.0505V51.6085ZM22.9165 51.0505L22.2166 51.1875L22.7747 51.4682L22.9165 51.0505ZM3.85327 52.1665C3.72602 51.5729 2.22021 51.9828 2.59303 52.3069L3.85327 52.1665ZM13.3838 52.5887H12.8245V53.0063C13.0824 53.0386 13.2353 53.0152 13.3826 52.7947V52.5875L13.3838 52.5887ZM1.47121 53.4262C1.72013 53.6924 2.09854 52.866 1.68106 52.8704C1.53707 52.8716 1.38526 53.3338 1.47121 53.4262ZM23.6152 53.1478L23.3373 53.3594L23.5472 53.7047L23.7548 53.4975L23.6164 53.1478H23.6152ZM10.7204 54.2649C10.8131 54.2471 11.4471 54.481 11.4192 54.1959C11.3935 53.933 10.5563 53.3872 10.7204 54.2649ZM2.94353 53.9876C2.61201 54.06 2.73703 54.6213 3.07972 54.5456C3.4224 54.4699 3.28622 53.9118 2.94353 53.9876ZM20.1136 54.4053C20.6271 54.403 20.6271 53.9898 20.1136 53.9876V54.4053ZM18.2885 54.9644L18.4158 54.3473L17.8711 54.1268L18.2897 54.9644H18.2885ZM8.89869 54.5467H8.61963C8.33499 55.2361 8.95339 55.2696 8.89869 54.5467ZM3.15116 56.223C3.1612 56.0191 3.19469 55.8521 3.01497 55.7307L2.5908 55.665C2.71359 55.9067 2.81293 56.282 3.15116 56.2219V56.223ZM9.59969 55.665C9.45905 55.5224 9.03711 55.9378 9.1811 56.0826C9.3251 56.2274 9.74369 55.8098 9.59969 55.665ZM30.2044 58.3214C30.2915 58.2278 30.1386 57.7667 29.9946 57.7656C29.5771 57.7611 29.9555 58.5876 30.2044 58.3214ZM21.3727 59.4418L20.3424 59.4608C19.4651 60.5556 21.2365 59.8495 21.1271 60.9566L21.5145 60.98L21.3749 61.8176C22.0335 61.9211 21.721 61.2484 22.3673 61.0468C22.768 60.9221 23.0661 61.3074 23.334 60.9087C22.9355 60.3084 22.5827 59.8985 22.1217 60.7026L21.6741 60.6759L21.3727 59.4418ZM11.4236 61.5358C11.3321 61.4377 11.8378 60.6447 11.1423 60.6993C11.2629 61.2506 10.8778 61.0424 10.5842 61.3286L11.9126 62.0982C12.1704 61.7207 11.8076 61.5135 11.4236 61.5346V61.5358ZM24.3174 61.2607L23.6086 61.0524C22.835 61.3286 24.1377 62.0114 24.3174 61.2607ZM2.45015 61.1203C2.1856 61.0758 1.9858 61.284 2.03156 61.538H2.45015V61.1203ZM8.47229 63.0728C8.46671 62.7509 8.93665 62.4791 8.54819 62.2408L7.91752 62.7286L8.47229 63.0717V63.0728ZM11.562 63.496C11.725 63.3557 10.8767 62.497 10.7226 62.6585C10.784 63.1942 10.9258 63.6219 11.562 63.496ZM8.05705 63.3579C7.92645 63.2465 6.34696 64.122 7.49892 64.1298C7.46097 63.9137 8.27248 63.5428 8.05705 63.3579ZM0.280177 64.7569C-0.104927 64.8437 0.314781 65.3115 0.418591 65.3126C0.693187 65.316 0.670862 64.6689 0.280177 64.7569Z" fill="#FF2D2D"/>
<path d="M31.8866 5.03536L40.6425 3.49275C40.7887 4.3771 41.5567 4.01066 42.1181 4.47623L41.2787 3.35798L61.5854 0.0166016C61.9839 0.887588 61.6156 1.86773 61.5966 2.72201C61.5575 4.42388 61.6379 6.13244 61.6022 7.8332L61.1802 7.75524C60.6455 8.32216 61.9069 9.17755 61.2639 9.66428L50.423 11.4408L49.6193 10.8995C49.4853 10.9028 49.3157 11.0053 49.2688 11.1211C49.0868 11.5666 49.5523 11.3673 49.5467 11.6079L48.2709 11.834L46.8845 16.2234L53.7527 15.5262L53.6601 16.6088L51.0972 23.8551C48.9987 24.7863 46.5999 24.8464 44.4299 25.5938L44.3618 25.1761H43.9421C43.8785 26.4035 42.8169 27.867 42.6818 29.0265C42.645 29.3383 42.789 29.2325 43.0145 29.218C44.0693 29.1512 45.8977 28.3549 46.8209 28.3849C47.2707 28.3994 48.3077 29.3762 47.8657 28.1143C49.3871 28.0875 59.3507 25.361 59.9624 25.7541C60.0216 25.792 60.0952 25.8043 60.1365 25.87L60.0606 36.7852L29.8115 43.1917C29.4454 43.2429 29.0547 42.8431 29.105 42.4856L38.7225 11.5343L31.9034 9.0762L31.8889 8.53155C32.2003 8.68526 32.6915 8.83116 32.8678 8.39344L32.0998 8.10497L31.8866 8.39233V5.03536ZM41.2787 5.03536C41.0119 5.28373 41.8402 5.66131 41.8357 5.24475C41.8346 5.10107 41.3714 4.94959 41.2787 5.03536ZM44.7826 6.29506H44.0827V6.43205C44.3796 6.43985 44.6788 6.68043 44.7826 6.29506ZM46.3241 9.2299C46.3241 8.67969 45.7683 8.67301 45.7649 9.2299H46.3241ZM49.127 10.2089C49.1248 9.69658 48.7107 9.69658 48.7084 10.2089H49.127ZM48.8156 10.3849C48.6995 10.2724 48.4305 10.2557 48.2932 10.131L48.0108 10.278L48.2765 11.2693L48.8457 11.3305C48.8167 11.0532 49.0333 10.5976 48.8156 10.386V10.3849ZM46.7438 13.146C46.7963 12.4465 46.2717 12.4465 46.3253 13.146H46.7438ZM39.8756 13.1471H39.457V13.4256H39.8756V13.1471ZM46.1165 13.567C45.7727 13.645 45.8732 14.35 46.2527 14.2654C46.7539 14.1529 46.4804 13.4846 46.1165 13.567ZM38.7549 14.9659C38.4903 14.9214 38.2905 15.1297 38.3363 15.3836H38.7549V14.9659ZM40.1558 15.1052H39.4559C39.4179 15.7545 39.793 15.8247 40.1547 15.3123V15.1052H40.1558ZM42.8203 19.4412C42.549 19.7118 43.2656 20.3055 43.3795 19.7876C43.4442 19.4935 42.9218 19.3387 42.8203 19.4412ZM47.4448 21.818C47.5431 21.2711 47.0274 20.6708 46.4648 20.7009C46.4268 21.2756 46.784 21.955 47.4448 21.818ZM51.0894 22.0976V21.6788L50.6708 22.0296L51.0894 22.0987V22.0976ZM46.4637 22.239C45.526 22.141 45.5338 22.8973 46.4637 22.797V22.239ZM43.6619 23.7772C43.5815 23.8574 43.7791 24.1937 43.8718 24.1937C44.2602 24.1937 43.874 23.5667 43.6619 23.7772ZM44.0816 25.0335C44.1452 24.9845 43.4409 23.6713 43.2411 24.4076C43.1216 24.8486 43.74 25.0703 44.0816 25.0335ZM45.6231 24.1971C45.4825 24.0545 45.0606 24.4699 45.2046 24.6147C45.3485 24.7595 45.7671 24.3419 45.6231 24.1971ZM44.921 25.175C45.2693 24.3218 44.5382 24.2583 44.6431 25.175H44.921ZM41.1381 25.596C40.8813 25.5615 40.7284 25.5882 40.58 25.8043L40.7876 26.0114L41.1381 25.596ZM41.9786 26.8523C42.0657 26.7588 41.9127 26.2977 41.7688 26.2966C41.3513 26.2921 41.7297 27.1185 41.9786 26.8523ZM37.4924 26.4347H37.2134V26.8523H37.4924V26.4347ZM41.4372 28.092L41.2888 27.6153L40.6626 27.5685C39.8243 28.5063 40.8266 29.3149 41.8368 29.3729C41.6493 28.7168 42.3291 28.8271 42.2566 28.3237L41.4361 28.092H41.4372ZM35.6674 28.6756C35.088 28.5698 34.3178 28.542 34.2709 29.2993L35.1014 29.5277L35.1874 29.9398L35.9509 29.9298L35.6674 28.6767V28.6756ZM50.8081 28.9541L50.1093 28.6723L50.6083 29.2236C50.8472 29.3283 50.8762 29.0298 50.8081 28.9541ZM51.6497 29.3717C51.4276 29.1501 51.0079 29.5678 51.2311 29.7894C51.4544 30.0111 51.873 29.5934 51.6497 29.3717ZM57.2566 30.2104H56.6974C56.7007 30.7673 57.2566 30.7606 57.2566 30.2104ZM54.0329 32.1674C54.1222 31.8577 53.5741 31.2362 53.333 31.469C53.0919 31.7018 53.7349 32.2654 54.0329 32.1674ZM49.9676 32.5884H49.549V32.8668H49.9676V32.5884ZM38.3207 33.1609C38.1778 32.9548 37.44 33.0172 37.2714 33.2845L37.4958 34.1254C37.892 34.1132 38.5875 33.5451 38.3207 33.1598V33.1609ZM50.2489 33.0083C49.991 32.976 49.8381 32.9994 49.6907 33.2199V33.4271L50.25 33.2856V33.0083H50.2489ZM50.2489 33.847H49.8303V34.1254H50.2489V33.847ZM37.2122 34.4061H35.8102V34.8249L36.365 34.8382L36.3885 35.2225L36.9343 35.2448C36.6095 34.6055 37.2524 34.9151 37.2134 34.4072L37.2122 34.4061ZM37.2145 35.1044C37.3082 35.1913 37.7704 35.0387 37.7715 34.895C37.776 34.4785 36.9477 34.8561 37.2145 35.1044ZM41.4171 35.384C41.5042 35.2904 41.3513 34.8293 41.2073 34.8282C40.7898 34.8238 41.1682 35.6502 41.4171 35.384ZM48.426 35.805H48.147V36.2227H48.426V35.805ZM41.838 36.0846C41.3323 35.6357 41.253 36.9979 41.7688 36.3641C41.8424 36.2739 41.8737 36.1169 41.838 36.0846ZM42.3983 36.3641C41.6303 36.3931 41.6437 36.9411 42.3983 36.9222V36.3641ZM40.9974 36.9222C41.0231 36.2283 39.8555 36.4466 40.2283 37.0647L40.9974 36.9222ZM37.2145 38.3211C37.3875 38.1596 38.189 38.3734 38.1923 38.1117C38.1957 37.8499 37.0716 37.8889 37.2145 38.3211ZM44.0805 37.9034H43.6619V38.1819H44.0805V37.9034Z" fill="#FF2D2D"/>
<path d="M63.7051 0L69.9561 1.52478C70.5711 1.82328 70.1336 2.25209 71.1661 1.84667C76.1948 3.52404 82.1946 4.17004 87.1161 5.94209C87.403 6.04567 87.7836 6.10804 87.8026 6.49342L85.7777 20.9761C84.5253 21.6421 85.6304 21.9529 85.5723 23.0043C85.3469 27.073 84.1279 31.4669 83.879 35.5835C83.5084 36.4333 83.8321 37.4357 83.3923 38.3156L65.3427 46.8796C64.9777 47.0199 63.704 47.461 63.4875 47.1413C63.3982 45.9206 63.3926 44.6553 63.4194 43.4224C63.6973 30.7162 63.7464 17.9833 63.7051 5.24597L64.2655 5.45425C64.501 4.67125 63.7051 4.81047 63.7051 4.7559V0ZM64.9665 3.77687C64.7444 3.55523 64.3247 3.9729 64.5479 4.19455C64.7711 4.41619 65.1897 3.99852 64.9665 3.77687ZM66.9288 5.87303C67.007 5.37294 66.4756 4.89401 66.0917 5.38296C66.2848 5.78839 66.4455 5.94877 66.9288 5.87303ZM81.085 8.11287H80.806C80.5213 8.99722 81.1643 9.01393 81.085 8.11287ZM64.5457 9.79136C64.3235 9.56972 63.9038 9.98739 64.1271 10.209C64.3503 10.4307 64.7689 10.013 64.5457 9.79136ZM78.3134 26.8268C78.2107 26.6497 78.2844 26.3167 78.3011 26.104C78.6449 21.8326 80.2769 16.9709 80.5124 12.7752C80.5403 12.2762 80.4934 11.8797 79.9677 11.6748L71.5546 9.79136V34.9664L77.4026 31.5716L78.0299 27.6522L78.703 27.2724C78.8124 26.926 78.3804 26.9427 78.3134 26.8268ZM82.9079 13.8467L82.3486 13.987C82.304 14.1908 82.4089 14.2777 82.5585 14.4025L82.909 14.2644V13.8467H82.9079ZM67.9044 14.829L67.2291 14.985L67.3396 15.7446L67.8966 15.7914C68.0685 15.4517 68.0373 15.1743 67.9044 14.829ZM86.1316 17.3418C86.2745 17.1992 85.8559 16.7804 85.713 16.9241C85.5701 17.0678 85.9887 17.4854 86.1316 17.3418ZM71.1337 26.9939C70.8848 26.7277 70.5064 27.5541 70.9239 27.5497C71.0679 27.5486 71.2197 27.0863 71.1337 26.9939ZM79.4029 27.4127H78.9843C79.6417 28.0676 78.5054 28.1511 79.0568 28.6702C79.4743 28.7492 79.4609 27.4517 79.4029 27.4127ZM78.002 32.1686C77.6091 31.8924 77.1548 32.7266 77.6537 32.8658C78.2141 33.0218 78.1627 32.2811 78.002 32.1686ZM73.2356 35.1045C73.2881 34.4051 72.7634 34.4051 72.817 35.1045H73.2356ZM83.4682 35.6659C82.602 35.5178 83.2941 36.2718 83.4682 36.0836V35.6659ZM81.9267 36.225H81.7191L81.5092 36.4333L81.6476 36.7819H81.9267V36.2239V36.225ZM70.5734 36.7841C70.3245 36.518 69.9461 37.3444 70.3635 37.3399C70.5075 37.3388 70.6593 36.8766 70.5734 36.7841Z" fill="#FF2D2D"/>
<path d="M186.519 30.4975C186.527 30.4953 186.509 30.4062 186.627 30.365C186.851 30.2859 187.188 30.4685 187.435 30.2224C187.613 30.0453 187.929 29.1153 187.782 28.8302L188.823 28.5317L188.902 28.8179L189.18 28.8201L189.269 28.3947L191.984 27.9814C192.011 28.2231 191.969 28.4515 191.919 28.6876C191.047 32.8209 188.623 37.5345 187.498 41.6878C187.672 41.5007 186.797 40.7622 186.566 40.7255L186.235 40.9215C186.618 41.4205 186.426 41.6811 186.377 42.2458C186.842 42.1667 186.854 41.5731 187.498 41.6867L182.17 58.1909L181.751 58.0505L182.019 58.5217L176.824 74.1148L169.061 73.8586L162.967 51.6173V74.5547H153.365C153.327 74.5547 152.884 74.3888 152.866 74.3275L156.519 32.3854C156.574 31.9833 156.645 31.4442 157.145 31.4019L169.416 32.3152L171.516 56.6505L173.894 46.5306C174.034 46.2744 174.635 46.7489 174.075 45.8445L176.566 35.2523C177.1 35.7301 177.52 34.9315 177.743 34.9783C177.966 35.0251 178.061 35.5107 178.347 35.6421C178.693 35.8003 179.284 35.7936 179.647 35.6744L179.252 36.2748C179.519 36.9954 179.627 37.0967 180.279 37.4899C180.746 37.0845 180.051 36.3761 180.478 35.8716C180.747 35.5185 181.326 35.9083 181.75 35.6755C181.78 35.6989 181.402 36.2302 181.33 36.3093C181.134 36.5298 180.808 36.4195 180.91 36.7927L181.307 36.8083C181.26 37.4153 181.796 37.9143 182.239 37.3585L182.173 36.7938C182.354 37.08 183.676 36.737 183.709 36.5777L183.153 35.396L183.993 35.6744C184.034 34.9538 183.1 35.0295 183.288 34.1396C182.892 33.9714 182.574 34.3412 182.343 34.3824C182.007 34.4426 181.603 34.2621 181.156 34.5584C180.912 34.7199 180.969 35.1053 180.689 35.2534C180.216 35.0318 179.915 34.7399 179.368 34.9761L179.366 34.4181C179.702 34.4025 180.113 34.5306 180.345 34.2087L179.788 33.2998L180.768 33.4379C180.975 33.2497 179.771 32.489 179.697 32.4767C179.561 32.4522 179.143 32.8086 178.816 32.8164C178.558 32.822 178.219 32.2863 178.023 33.0113C177.859 33.6172 178.848 33.2541 179.225 33.5816C179.164 34.339 178.743 33.6473 178.245 33.7186L178.106 34.2777L177.609 33.2987L176.983 33.5794L177.426 31.5044L180.308 30.6679L181.047 31.2025L180.906 30.5053L182.805 30.0731L183.219 30.5008C183.577 30.3416 183.269 29.9818 183.295 29.9506C183.388 29.8359 185.943 29.2378 186.17 29.2378C186.537 29.2378 186.848 29.5742 186.654 29.8025C186.612 29.8515 185.645 30.0275 185.568 30.4296L185.755 30.7904C186.04 30.7715 186.239 30.5922 186.513 30.5042L187.354 31.3429C187.334 30.9909 186.863 30.5231 186.513 30.5042L186.519 30.4975ZM179.495 31.3518L178.949 31.1981C178.886 31.628 179.078 31.8196 179.509 31.7561L179.495 31.3518ZM186.097 31.8964H185.678C185.68 32.4088 186.095 32.4088 186.097 31.8964ZM184.137 33.1539L184.684 32.7852L184.343 32.3152C183.81 32.3954 184.05 32.8064 184.137 33.1528V33.1539ZM185.554 33.4279L185.19 33.0158L184.556 33.9915L184.896 33.7242C185.371 33.9625 186.066 33.9848 185.957 33.2931L185.554 33.4268V33.4279ZM181.051 34.2733L180.982 33.5749L180.493 34.0639C180.642 34.2799 180.794 34.3056 181.05 34.2733H181.051ZM185.256 34.2744C184.995 34.2387 184.772 34.2744 184.696 34.5517H185.256V34.2744ZM185.398 34.9738L184.557 34.8335C184.528 35.1097 184.527 35.5341 184.907 35.5363L185.398 34.9738ZM183.574 37.0711L183.033 37.09C182.749 37.6492 183.024 38.2918 183.552 37.677L183.574 37.0711ZM187.527 39.0002C188.943 39.5126 188.292 37.9488 187.219 38.1905L187.527 39.0002ZM176.285 39.0303H176.006V39.4479H176.285V39.0303ZM186.938 39.4479C186.936 38.9356 186.522 38.9356 186.52 39.4479H186.938ZM186.237 39.7286C185.724 39.7309 185.724 40.1441 186.237 40.1463V39.7286ZM185.957 40.5684C185.735 40.3468 185.315 40.7645 185.539 40.9861C185.762 41.2077 186.18 40.7901 185.957 40.5684ZM185.678 42.806C186.099 42.708 186.333 43.3518 186.656 42.8751L185.332 41.8259C185.025 41.9763 184.928 42.6345 184.795 42.7637C184.705 42.8517 184.438 42.8461 184.265 43.001C183.894 43.3306 184.016 43.8363 183.295 43.5044C183.231 43.7862 183.57 44.8799 183.556 44.9523C183.52 45.1472 183.003 45.3544 183.153 45.7409C183.726 45.556 183.58 46.0204 183.995 46.0204C183.948 44.9579 184.256 44.0412 184.698 43.0845L186.097 43.9232L185.678 42.8049V42.806ZM183.854 43.0845C184.175 42.7648 183.276 42.2013 183.154 42.7381C183.076 43.0811 183.763 43.1758 183.854 43.0845ZM179.37 44.0646C179.093 44.4567 179.93 44.91 180.069 44.4121C180.225 43.853 179.483 43.9042 179.37 44.0646ZM182.572 44.6015L182.732 43.9243L182.03 44.2729L182.104 44.6238L182.572 44.6015ZM180.771 45.0436C180.22 45.0436 180.213 45.5983 180.771 45.6017V45.0436ZM182.734 47.0006L182.456 46.231L181.613 46.1641C181.711 46.388 182.497 47.23 182.734 47.0017V47.0006ZM181.472 47.5631L180.913 47.4216V47.6989C181.114 47.7101 181.269 47.866 181.472 47.8404V47.5631ZM180.435 47.993C179.963 48.14 180.339 48.8651 180.683 48.8105C181.161 48.7348 181.222 47.7491 180.435 47.993ZM174.815 49.2415C174.54 49.2382 174.563 49.8853 174.953 49.7973C175.344 49.7093 174.919 49.2426 174.815 49.2415ZM182.314 49.7973C182.571 49.8307 182.722 49.8051 182.871 49.5879L182.663 49.3808L182.314 49.5189V49.7973ZM176.005 50.636L175.796 50.0813L175.164 50.3598L175.398 50.7641L176.005 50.636ZM181.613 51.1962C181.892 51.2397 182.161 51.1762 182.172 50.8499L181.962 50.6405L181.613 50.9891V51.1962ZM181.472 51.1962C181.258 51.0949 180.875 51.6718 180.838 51.7565C180.751 51.9525 181.271 52.2944 180.633 52.7344L181.24 52.887L181.894 52.2443C181.748 51.85 181.357 51.7064 181.472 51.1962ZM183.435 51.3377H183.016V51.6161H183.435V51.3377ZM174.463 53.4339C174.508 53.1699 174.299 52.9705 174.045 53.0162V53.4339H174.463ZM168.296 53.8549H167.877V54.4129H168.085C168.305 54.2648 168.33 54.1122 168.297 53.8549H168.296ZM167.001 55.0199C166.865 54.9653 166.756 54.9598 166.615 54.9742C166.461 55.3429 166.902 55.2148 166.899 55.3229C166.89 55.6603 166.237 55.9354 166.683 56.2295C167.409 56.1415 167.553 55.2393 167.001 55.0199ZM161.148 55.8118C161.145 55.2995 160.731 55.2995 160.729 55.8118H161.148ZM168.155 55.3941C167.958 55.1769 167.137 56.2217 168.155 56.0925V55.3941ZM172.922 55.3941C172.156 55.324 172.187 56.1214 172.922 55.8118V55.3941ZM159.326 56.5113C159.556 56.7775 160.089 55.6826 159.674 55.5345C159.088 55.3251 159.387 56.2128 159.326 56.5113ZM172.922 56.9323C172.06 56.7363 172.187 57.5515 172.922 57.4903V56.9323ZM170.258 58.75C170.3 58.9182 170.156 59.1877 170.342 59.3225C170.95 59.7647 171.676 58.9115 170.468 58.6698C170.385 58.6531 170.282 58.7556 170.26 58.75C170.175 58.4003 170.102 57.8656 169.694 57.6941C169.391 57.5671 169.246 57.7799 169.076 57.7743C168.986 57.7721 169.02 57.5438 168.929 57.5204C168.823 57.4936 168.359 57.6028 168.157 57.4914L168.292 57.9859C168.913 57.7587 168.939 58.2143 169.288 58.388C169.595 58.5417 169.926 58.662 170.258 58.7489V58.75ZM175.164 58.1898C175.251 58.0962 175.098 57.6351 174.954 57.634C174.537 57.6295 174.915 58.456 175.164 58.1898ZM171.173 58.0505L170.961 58.398L171.452 58.7455L171.66 58.4014L171.173 58.0505ZM168.858 59.5887C169.551 59.7747 169.586 58.8113 169.065 58.6119C168.682 58.466 168.916 59.4372 168.858 59.5887ZM167.174 59.0318C166.818 59.0251 166.49 58.5194 166.194 58.9616C166.093 59.4728 167.547 59.416 167.174 59.0318ZM167.875 59.7279C167.96 59.6221 167.798 59.3837 167.659 59.3169C166.688 59.3269 167.593 60.081 167.875 59.7279ZM179.93 59.3102C179.836 59.2234 179.374 59.3759 179.373 59.5196C179.368 59.9362 180.196 59.5586 179.93 59.3102ZM179.23 60.1467C179.155 59.8682 178.932 59.8326 178.669 59.8694V60.1478H179.23V60.1467ZM172.642 64.2054C171.775 64.0572 172.467 64.8113 172.642 64.623V64.2054ZM175.865 69.1005L175.372 69.2364L175.306 69.6585L175.799 69.5226L175.865 69.1005ZM156.522 71.1977H155.962V71.6154H156.522V71.1977Z" fill="#22C55E"/>
<path d="M151.827 62.5256L152.015 62.7572C152.057 62.9343 152.053 63.1159 152.047 63.2963C151.957 66.3815 151.613 69.9768 151.335 73.0832C151.312 73.3461 151.168 74.5601 151.065 74.6325L135.798 74.5345L132.814 49.4686L131.377 41.5328L127.456 41.1396C127.273 40.5059 126.55 38.5422 127.096 38.1279C127.455 37.855 128.969 37.2937 129.515 37.0464C136.411 33.9256 143.674 30.8292 150.681 27.9556C151.555 27.597 152.44 27.2094 153.368 27L152.447 38.3897L141.233 43.5911L142.086 47.4214L148.773 45.2038L149.043 45.3876L148.787 55.855C148.722 56.07 148.53 56.1625 148.351 56.2594C146.909 57.0424 145.122 57.5814 143.649 58.3499L144.61 62.5256H151.828H151.827Z" fill="#22C55E"/>
<path d="M89.6611 61.4053L80.2713 62.2439L80.6932 62.1047L80.2657 61.5946L80.8316 55.2527C80.576 54.9976 78.6226 55.8664 78.2006 55.9287C77.9338 55.9677 77.6793 55.8051 77.5454 55.833C77.3869 55.8664 77.3679 56.1571 77.2284 56.2384C76.5296 56.6505 72.7422 57.7687 72.4799 58.1875L75.0316 68.538L74.8028 69.3043L75.3687 69.615C75.5183 70.6498 76.0206 71.5965 76.274 72.5955C76.4291 73.207 76.6323 73.4832 76.2048 74.0591L76.7651 73.9934L77.4672 75.7509L78.3089 75.673L78.1694 76.0906C78.8726 76.2532 78.6192 75.5783 78.7532 75.4168C78.9932 75.1261 81.8139 74.8231 81.9356 74.4656L81.9545 72.5944L79.0166 72.8718L78.022 67.7717C78.0834 67.3696 78.9251 67.2337 79.3236 67.1023C83.5028 65.7246 88.0057 64.7711 92.2396 63.5137L92.4673 63.8534L93.0288 70.9137C92.5711 70.9516 90.6445 71.3336 90.5284 71.7067L89.2436 82.5874L69.7596 85.1179L69.5196 84.6524C68.6713 80.0658 67.6197 75.5193 66.7111 70.9471C66.6475 70.6252 66.5682 70.3657 66.5459 70.2521C66.4064 69.5482 65.9007 67.3507 66.0023 66.8205C66.0347 66.6535 66.355 66.2737 66.2557 66.1601C65.9878 65.8526 66.0168 66.5176 65.8371 66.4374C65.0859 62.0802 63.7721 57.6429 63.0911 53.2902C63.0286 52.8937 62.8891 52.2098 63.1648 51.9558L77.0498 48.8149C76.8734 49.4119 77.3612 49.2649 77.3288 49.6525C76.8265 49.6146 76.7439 50.3743 77.138 50.4845C77.4773 50.6338 78.0901 49.9733 78.0321 49.7283C77.9997 49.5924 77.647 49.5779 77.6079 49.4175C77.5487 49.1747 77.6425 48.8071 77.6124 48.5376L86.7656 46.5996C87.1998 46.7021 87.2902 47.8226 87.3784 48.2302C88.3138 52.5729 88.8987 57.0258 89.6644 61.403L89.6611 61.4053ZM79.8493 48.3995L79.2912 48.7503V48.9575L79.8493 48.6067V48.3995ZM69.1959 52.036C68.3297 51.8879 69.0218 52.6419 69.1959 52.4537V52.036ZM71.5791 52.7333C71.5333 51.8734 70.3233 52.5239 70.9685 52.7143C71.156 52.77 71.3826 52.7244 71.5791 52.7333ZM82.7928 52.4559L81.9534 52.3156L82.4636 52.8569L82.5796 52.8747L82.7928 52.4559ZM84.4739 52.5952H84.1948V53.0128H84.4739V52.5952ZM74.4545 53.0151C74.0884 53.1131 74.2558 53.7 74.7325 53.572C75.0986 53.4739 74.9311 52.887 74.4545 53.0151ZM66.6732 53.7145H66.3941V54.1322H66.6732V53.7145ZM69.7395 53.8693L69.3388 53.7134C69.2818 53.9796 69.5185 54.091 69.6881 54.2725L69.7395 53.8693ZM71.0198 54.4118C71.7655 54.4764 71.7599 53.7869 71.0198 53.8537V54.4118ZM67.1186 54.5298C67.1409 54.5655 67.8441 54.9597 67.9334 54.6223L67.3039 53.9941C66.9712 53.8961 67.0661 54.4429 67.1197 54.5298H67.1186ZM77.186 54.6913C77.3701 54.5209 76.8198 54.0943 76.6267 54.2736C76.4336 54.453 76.9928 54.8706 77.186 54.6913ZM74.2424 55.1112C74.0649 54.2213 73.5649 54.9664 73.1217 54.9731L73.3316 55.3897C73.5593 55.0856 73.8863 55.0823 74.2424 55.1123V55.1112ZM66.6732 55.53C66.5883 55.2137 66.2401 55.2315 65.9733 55.2527V55.5311H66.6732V55.53ZM84.1937 55.393C84.1134 55.3128 83.7763 55.51 83.7763 55.6024C83.7763 55.99 84.4047 55.6046 84.1937 55.393ZM84.3366 55.6715L84.1982 56.0212L84.4058 56.2284L84.6157 55.8831L84.3377 55.6715H84.3366ZM65.9722 56.5113L64.9832 56.5714L64.8526 57.2085C64.972 57.3355 66.2334 56.7262 65.9722 56.5101V56.5113ZM72.9811 56.93C73.2478 56.6817 72.4196 56.3041 72.4241 56.7207C72.4252 56.8643 72.8884 57.0158 72.9811 56.93ZM66.2523 58.0483L66.1162 57.5571L65.4118 57.4903L65.4944 57.9213L66.2523 58.0483ZM68.8465 58.0516L68.6389 58.2588L69.1267 58.7455L69.3343 58.5384L68.8465 58.0516ZM67.2335 61.8263C66.8808 61.7917 66.7614 62.049 66.8149 62.3843H67.0929L67.2346 61.8263H67.2335ZM66.8138 63.9236C66.2769 63.9302 65.7255 63.7643 65.9253 64.4537C66.2088 65.4339 66.3841 64.6297 66.7145 64.3312L66.8138 63.9236ZM81.9512 67.1391C82.0383 67.0455 81.8853 66.5844 81.7413 66.5833C81.3239 66.5788 81.7023 67.4053 81.9512 67.1391ZM71.0187 67.9789C71.0355 67.6871 71.0723 67.4554 70.8089 67.2828C70.5454 67.4543 70.5823 67.6871 70.599 67.9789H71.0176H71.0187ZM79.7087 69.517C79.7712 68.8811 79.2644 68.7518 78.7286 68.8176V69.5181H79.7087V69.517ZM72.5591 71.7557L72.4185 71.0574H72.2812C72.26 71.318 72.2421 71.6722 72.5591 71.7557ZM68.4938 71.337C68.3018 71.1443 68.2314 71.3514 68.2114 71.5486C68.1578 72.0609 68.3598 72.6356 68.7739 72.9464C69.927 72.8016 68.5172 71.9562 68.4938 71.337ZM85.3602 72.4185C85.2519 72.3327 85.1961 72.0442 85.1068 72.0375C84.5063 71.9963 85.4194 73.1981 85.7364 72.8729C86.0813 72.5198 85.3982 72.4485 85.3602 72.4185ZM67.7939 72.7359C67.5293 72.6913 67.3295 72.8996 67.3753 73.1536H67.7939V72.7359ZM69.0575 75.673C68.7907 75.9213 69.6189 76.2989 69.6145 75.8824C69.6134 75.7387 69.1501 75.5872 69.0575 75.673ZM79.2878 76.5116C79.2075 76.4315 78.8704 76.6286 78.8704 76.721C78.8704 77.1086 79.4988 76.7233 79.2878 76.5116ZM80.5492 76.9315C80.4688 76.8514 80.1317 77.0485 80.1317 77.1409C80.1317 77.5285 80.7602 77.1432 80.5492 76.9315ZM80.1016 77.376C80.0848 77.347 79.5647 77.0574 79.5033 77.0697L79.2867 77.6299L78.3089 77.5586L78.7989 78.326L79.2198 77.9095L79.3704 78.199L79.9922 77.9807C80.1462 77.8382 80.202 77.5464 80.1016 77.3737V77.376ZM77.7463 77.631C77.6057 77.4884 77.1837 77.9039 77.3277 78.0487C77.4717 78.1935 77.8903 77.7758 77.7463 77.631ZM80.269 79.168C80.3014 78.9108 80.2779 78.7582 80.0569 78.6111H79.8493V79.1692H80.2679L80.269 79.168ZM78.7286 79.8664C78.5254 79.5167 78.3937 78.8918 77.8881 78.8896C77.8077 78.9731 78.3457 80.1571 78.7286 79.8664ZM69.6893 80.4277C69.6312 80.4411 69.5497 80.5848 69.4794 80.6371C69.7384 80.92 69.8913 81.1706 70.1748 80.7775C70.0364 80.665 69.8913 80.3821 69.6893 80.4289V80.4277ZM78.4484 80.5681L77.955 80.4311L77.7497 80.6371C77.9897 80.9523 78.0801 80.9813 78.4462 80.8454V80.5681H78.4484ZM78.4484 82.6665L77.8155 82.5295L77.6101 82.7344C77.8155 83.0496 78.3011 83.0518 78.4484 82.6654V82.6665Z" fill="#22C55E"/>
<path d="M94.1071 47.4646C94.4956 47.7409 94.0982 47.977 95.0158 47.5872C101.691 48.8591 108.297 50.4596 114.733 52.6171L114.613 59.0314C114.156 58.979 113.557 59.037 113.841 59.5916H114.613L114.444 63.55C114.282 64.0925 112.563 64.3809 112.089 64.695C112.764 65.5059 113.664 66.1463 114.405 66.8602C116.483 68.8651 118.816 71.1361 120.711 73.2957C120.822 73.4227 121.396 74.0876 121.419 74.1367C121.506 74.3149 120.984 74.5254 121.338 74.7671C121.611 74.9787 121.74 74.6234 121.762 74.4162C122.283 74.6613 122.531 75.2471 122.188 75.7539C120.255 75.9009 118.298 75.853 116.364 75.9566C115.05 76.0268 113.564 76.313 112.296 76.372C110.806 76.4411 110.717 75.6414 109.706 74.7637L109.985 74.4864C109.752 74.277 109.551 74.1756 109.704 73.8582L109.143 74.0765L108.164 72.946L108.651 72.8803C108.852 72.2621 107.742 72.2633 107.465 72.1051C106.917 71.791 105.187 69.51 104.379 68.8907C104.238 68.7827 104.201 68.6189 103.958 68.6824C104.07 69.2738 103.841 70.0145 103.865 70.5502C103.897 71.223 104.039 72.1853 104.099 72.946C104.226 74.5955 104.653 76.2618 104.456 77.9202C104.082 78.4515 96.6834 78.4983 95.5471 78.7522C95.6051 77.8333 95.0995 76.5915 95.1185 75.7361C95.1296 75.2649 95.6375 75.1413 95.546 74.7671L95.4053 74.6245C95.3618 74.59 95.181 74.6924 95.1497 74.6646C94.8394 74.3906 94.5771 68.1155 94.2723 67.2022C94.2656 66.9215 94.9856 66.9861 94.2913 66.6185L92.3223 47.1405C92.3971 47.0659 93.9341 47.3421 94.1049 47.4635L94.1071 47.4646ZM94.567 50.2179L94.4978 49.6599C94.2824 49.8103 94.2534 49.9607 94.288 50.2179H94.567ZM108.556 56.962L101.717 54.9738C101.765 56.2981 101.651 57.6414 101.71 58.9657C101.75 59.8712 101.842 61.6187 101.999 62.4541C102.04 62.6735 102.198 62.8773 102.415 62.9464L102.5 62.5109L106.444 61.0162C107.529 61.3136 107.001 60.9159 107.321 60.6408C107.623 60.3824 108.619 60.3613 108.725 59.801C108.797 59.4212 108.738 57.2103 108.556 56.9631V56.962ZM101.155 59.3087L100.943 59.0314H100.735V59.4491L101.154 59.3076L101.155 59.3087ZM94.9175 65.047C94.8137 65.0481 94.394 65.5159 94.7791 65.6028C95.1687 65.6908 95.1921 65.0436 94.9175 65.047ZM107.182 65.1851C106.63 65.1851 106.624 65.7398 107.182 65.7431V65.1851ZM98.2116 72.4571C97.7349 72.4036 97.4291 72.4994 97.5117 73.0151C97.9883 73.0685 98.2942 72.9727 98.2116 72.4571ZM116.506 72.877L116.294 73.2245C116.55 73.5085 116.708 73.7591 116.99 73.367C116.855 73.2133 116.77 72.8168 116.505 72.877H116.506ZM96.2481 73.5742C96.3218 73.0106 95.2959 73.0262 95.1296 73.367C94.9633 73.7078 96.1197 73.6778 96.2481 73.5742ZM116.433 74.1344C116.486 73.5408 115.773 72.975 115.314 73.5063C115.714 73.6377 115.873 73.6288 115.894 74.1122L116.434 74.1344H116.433ZM118.676 73.856H117.975L117.986 74.2614C118.437 74.4775 118.729 74.4519 118.675 73.856H118.676ZM116.713 75.1135C116.777 74.5677 116.37 74.3472 115.874 74.4151C115.723 74.9252 116.352 75.0244 116.713 75.1135ZM101.855 75.5334C101.969 75.3874 101.622 75.0166 101.438 74.9742L101.454 75.3785L101.855 75.5345V75.5334ZM114.611 75.1146H114.193V75.393H114.611V75.1146ZM101.997 76.7919C102.289 76.8087 102.521 76.8454 102.694 76.5826C102.502 76.3453 102.323 76.1771 101.997 76.2339V76.7919Z" fill="#22C55E"/>
<path d="M129.049 42.3848L130.3 50.4074L124.563 52.664L124.285 55.953L129.291 54.5786L129.589 54.7857L130.105 61.1366L125.121 62.7338L124.843 63.9935L125.047 64.3532L130.516 67.9875L131.291 76.7932C131.18 76.9124 129.591 75.7741 129.541 75.6827C129.451 75.5179 129.773 75.1559 129.4 74.9788L129.095 75.2272L118.537 67.6334C118.826 67.5008 118.863 67.5186 118.818 67.1455H118.256L117.324 52.4813C117.239 52.224 117.2 52.1461 116.959 52.0068C116.101 51.5101 114.411 51.2817 113.443 50.8997C113.268 50.844 113.239 50.736 113.208 50.5734C113.123 50.1245 113.162 47.6831 113.363 47.369C113.689 46.8611 118.103 45.441 118.989 45.1503C122.249 44.08 125.696 43.0686 129.049 42.3892V42.3848ZM126.104 58.7486C126.184 58.6684 125.987 58.3321 125.894 58.3321C125.506 58.3321 125.892 58.9591 126.104 58.7486ZM125.264 66.8626C125.183 66.7824 124.846 66.9796 124.846 67.072C124.846 67.4596 125.475 67.0742 125.264 66.8626Z" fill="#22C55E"/>
<path d="M59.3776 39.6846L59.6645 52.7382L55.7342 55.3478L62.1727 57.806C62.5611 58.0354 62.9697 60.5426 62.8714 60.654C62.0164 60.7186 60.6256 61.4771 59.852 61.5038C59.6053 61.5127 59.4557 61.4069 59.3073 61.2265L59.0974 61.5027L59.3765 61.6419C58.8853 61.6931 58.258 62.1364 57.7724 62.0674C57.3907 62.0128 53.6602 58.6391 53.4917 58.8463L54.4717 62.7579L47.8848 64.8596C47.676 63.2068 47.7999 61.5506 47.7497 59.8899C47.7385 59.5201 47.6057 59.1815 47.5968 58.7839C47.4729 53.3542 47.8647 47.9255 47.7575 42.4969L59.3776 39.6857V39.6846ZM55.1593 45.434L51.9501 45.5598L52.7918 52.1323L56.2644 50.25L55.1604 45.434H55.1593ZM59.3776 57.728C59.1131 57.6835 58.9132 57.8918 58.959 58.1457H59.3776V57.728Z" fill="white"/>
<path d="M45.4815 61.3424C42.7144 61.4003 39.9294 61.3101 37.1555 61.3569C36.4712 61.368 35.7367 61.7623 35.0603 61.221L29.4434 46.9533L46.2093 42.6797L45.4815 61.3424ZM37.5105 46.118L36.9601 46.3385L37.3017 47.0937L37.5116 46.118H37.5105ZM41.2945 57.4452L40.8692 51.9275L41.0143 48.3556L36.2491 49.4749L38.649 57.7092L41.2945 57.4452ZM33.3056 52.4109L33.0968 51.7137C32.8602 51.8807 32.8658 52.1458 32.887 52.412H33.3067L33.3056 52.4109Z" fill="white"/>
</svg>
